<?xml version="1.0" standalone="no"?>
<!DOCTYPE svg PUBLIC "-//W3C//DTD SVG 20010904//EN"
 "http://www.w3.org/TR/2001/REC-SVG-20010904/DTD/svg10.dtd">
<svg version="1.0" xmlns="http://www.w3.org/2000/svg"
 width="1280.000000pt" height="709.000000pt" viewBox="0 0 1280.000000 709.000000"
 preserveAspectRatio="xMidYMid meet">
<metadata>
Created by potrace 1.15, written by Peter Selinger 2001-2017
</metadata>
<g transform="translate(0.000000,709.000000) scale(0.100000,-0.100000)"
fill="#000000" stroke="none">
<path d="M6495 6880 c-906 -100 -1716 -587 -2210 -1328 -95 -144 -193 -330
-250 -477 -22 -55 -40 -102 -42 -104 -2 -3 -31 5 -66 17 -265 92 -594 66 -859
-69 -138 -70 -291 -199 -383 -324 -96 -129 -170 -305 -197 -466 l-11 -71 -31
7 c-132 27 -475 32 -671 10 -713 -80 -1288 -418 -1603 -942 -217 -362 -225
-828 -22 -1233 145 -291 453 -575 815 -750 656 -319 1487 -328 2181 -24 7 3
35 -39 67 -101 216 -414 606 -700 1100 -807 147 -32 447 -32 589 -1 291 65
548 198 762 394 l53 48 51 -24 c63 -29 243 -88 336 -109 368 -86 769 -66 1128
54 168 56 288 114 455 220 20 13 27 9 110 -61 114 -97 179 -145 283 -210 573
-354 1298 -456 1985 -279 305 79 606 228 865 428 116 90 320 297 375 381 25
38 52 75 61 82 11 9 51 12 142 10 80 -1 159 4 214 14 493 87 905 459 1037 934
49 177 50 426 2 613 -115 447 -483 801 -960 925 -118 30 -347 42 -456 24 -163
-28 -133 -37 -248 80 -280 285 -659 487 -1146 610 -85 21 -156 40 -157 42 -2
2 -13 57 -24 123 -46 266 -123 498 -249 749 -382 757 -1081 1315 -1921 1534
-239 62 -413 82 -740 86 -157 2 -321 0 -365 -5z"/>
</g>
</svg>
