<?xml version="1.0" standalone="no"?>
<!DOCTYPE svg PUBLIC "-//W3C//DTD SVG 20010904//EN"
 "http://www.w3.org/TR/2001/REC-SVG-20010904/DTD/svg10.dtd">
<svg version="1.0" xmlns="http://www.w3.org/2000/svg"
 width="1280.000000pt" height="893.000000pt" viewBox="0 0 1280.000000 893.000000"
 preserveAspectRatio="xMidYMid meet">
<metadata>
Created by potrace 1.15, written by Peter Selinger 2001-2017
</metadata>
<g transform="translate(0.000000,893.000000) scale(0.100000,-0.100000)"
fill="#2196f3" stroke="none">
<path d="M6015 8924 c-461 -37 -840 -137 -1210 -319 -344 -169 -618 -384 -834
-655 -204 -255 -354 -575 -412 -880 -13 -63 -24 -117 -26 -119 -2 -3 -20 11
-41 31 -250 237 -647 441 -992 509 -166 33 -446 34 -608 1 -717 -144 -1291
-727 -1449 -1470 -24 -113 -27 -150 -28 -338 l-2 -211 -43 -58 c-310 -419
-433 -944 -334 -1421 39 -191 150 -444 262 -599 l57 -80 5817 -3 5817 -2 37
62 c121 204 238 473 293 673 46 166 62 273 68 455 6 164 6 164 38 215 55 85
142 254 195 378 250 583 236 1138 -38 1558 -240 368 -658 607 -1153 659 -596
63 -1193 -187 -1574 -659 -32 -39 -59 -70 -60 -69 -2 2 -28 53 -60 113 -651
1253 -1759 2052 -3065 2210 -128 16 -545 28 -655 19z"/>
<path d="M2755 3011 c-11 -5 -72 -41 -135 -81 -372 -235 -666 -473 -732 -596
-44 -82 -60 -165 -56 -284 5 -130 34 -205 108 -274 57 -54 87 -69 170 -91 112
-29 231 -3 347 75 78 53 159 132 184 181 45 89 78 229 103 435 23 186 48 645
36 643 -3 0 -14 -4 -25 -8z"/>
<path d="M6521 2925 c-450 -287 -694 -497 -749 -645 -56 -153 -47 -329 24
-440 98 -155 291 -202 470 -115 73 36 177 117 218 171 89 116 142 390 167 866
6 113 9 215 7 227 -3 19 -16 13 -137 -64z"/>
<path d="M10219 2917 c-369 -236 -638 -456 -709 -580 -69 -121 -81 -333 -26
-454 92 -203 323 -260 537 -133 171 101 231 194 279 430 35 174 78 665 68 787
l-3 43 -146 -93z"/>
<path d="M1785 1329 c-106 -56 -448 -290 -595 -407 -93 -73 -226 -210 -253
-260 -78 -145 -80 -369 -2 -491 83 -133 248 -197 402 -157 128 32 285 140 338
231 35 59 70 164 90 266 36 192 69 579 63 747 l-3 92 -40 -21z"/>
<path d="M5655 1307 c-124 -75 -400 -264 -500 -342 -133 -103 -258 -223 -297
-284 -71 -113 -94 -314 -50 -435 81 -221 305 -297 532 -181 61 32 157 111 196
162 87 114 140 397 165 875 6 119 9 221 8 226 -2 5 -26 -5 -54 -21z"/>
<path d="M9395 1326 c-11 -7 -101 -66 -199 -130 -335 -219 -588 -432 -644
-543 -72 -141 -71 -366 3 -482 34 -55 81 -99 139 -129 45 -24 62 -27 146 -27
74 1 107 6 151 23 111 44 236 146 281 229 76 138 124 445 144 916 4 86 5 157
3 156 -2 0 -13 -6 -24 -13z"/>
</g>
</svg>
