<?xml version="1.0" standalone="no"?>
<!DOCTYPE svg PUBLIC "-//W3C//DTD SVG 20010904//EN"
 "http://www.w3.org/TR/2001/REC-SVG-20010904/DTD/svg10.dtd">
<svg version="1.0" xmlns="http://www.w3.org/2000/svg"
 width="1280.000000pt" height="895.000000pt" viewBox="0 0 1280.000000 895.000000"
 preserveAspectRatio="xMidYMid meet">
<metadata>
Created by potrace 1.15, written by Peter Selinger 2001-2017
</metadata>
<g transform="translate(0.000000,895.000000) scale(0.100000,-0.100000)"
fill="#00bcd4" stroke="none">
<path d="M7395 8939 c-786 -96 -1414 -644 -1618 -1414 l-23 -85 -52 74 c-119
165 -314 325 -492 402 -232 101 -511 122 -770 57 -282 -70 -551 -270 -705
-524 -89 -147 -148 -330 -171 -531 l-5 -46 -122 58 c-305 146 -606 209 -937
197 -376 -14 -720 -125 -1030 -332 -473 -316 -781 -805 -865 -1370 -20 -131
-23 -402 -6 -525 19 -136 48 -263 92 -393 22 -67 44 -128 49 -137 6 -10 -8
-25 -53 -57 -312 -220 -533 -536 -632 -903 -41 -156 -58 -306 -52 -465 30
-749 547 -1357 1287 -1516 90 -20 135 -23 310 -23 184 0 217 3 325 26 109 24
248 68 348 112 29 13 38 14 41 4 2 -7 14 -53 26 -103 64 -266 220 -567 402
-775 335 -383 768 -608 1268 -660 720 -74 1445 288 1821 911 57 94 120 223
153 312 l23 59 58 -87 c187 -277 501 -507 821 -599 281 -82 601 -73 887 25
361 123 657 376 832 711 109 209 167 440 169 676 l1 133 -44 36 -44 37 102 33
c356 114 629 361 777 701 l32 75 86 27 c494 159 821 634 793 1150 -4 58 -9
121 -13 140 l-6 35 184 1 c183 0 274 11 418 50 263 73 509 221 703 422 l68 71
48 -24 c168 -85 380 -82 561 6 69 34 101 58 170 128 89 90 130 159 166 277 29
92 26 267 -5 362 -80 243 -296 423 -537 448 l-64 7 -6 36 c-78 452 -350 843
-749 1074 -326 189 -733 250 -1100 165 -279 -64 -518 -194 -722 -392 l-103
-99 0 139 c0 301 -55 548 -181 812 -266 560 -764 939 -1383 1053 -130 24 -408
33 -531 18z"/>
</g>
</svg>
